<?xml version="1.0" standalone="no"?>
<!DOCTYPE svg PUBLIC "-//W3C//DTD SVG 20010904//EN"
 "http://www.w3.org/TR/2001/REC-SVG-20010904/DTD/svg10.dtd">
<svg version="1.0" xmlns="http://www.w3.org/2000/svg"
 width="512.000000pt" height="512.000000pt" viewBox="0 0 512.000000 512.000000"
 preserveAspectRatio="xMidYMid meet">
<metadata>
Created by potrace 1.14, written by Peter Selinger 2001-2017
</metadata>
<g transform="translate(0.000000,512.000000) scale(0.100000,-0.100000)"
fill="#000000" stroke="none">
<path d="M1227 5106 c-98 -37 -160 -129 -159 -239 0 -78 32 -250 71 -387 113
-397 289 -702 557 -967 l124 -123 0 -573 0 -573 -54 -165 c-100 -305 -138
-529 -138 -819 1 -349 63 -622 211 -925 130 -265 201 -330 356 -330 60 0 78 5
125 31 68 38 115 97 136 171 26 90 16 128 -84 325 -197 383 -251 716 -182
1117 20 115 29 141 64 179 73 82 214 66 270 -30 19 -33 37 -107 75 -309 28
-146 57 -287 65 -312 46 -154 171 -251 326 -252 89 0 130 14 285 98 277 150
596 357 698 452 146 138 84 403 -109 461 -98 29 -155 10 -304 -102 -129 -97
-316 -224 -402 -273 l-57 -32 -11 38 c-10 38 -36 164 -87 433 -25 131 -28 170
-30 405 -2 143 0 413 4 600 l8 339 425 58 c248 33 440 64 461 74 82 36 119 96
119 193 0 50 -22 124 -145 483 -80 232 -157 456 -172 497 -49 139 -123 201
-238 201 -150 0 -247 -102 -232 -244 3 -29 55 -204 117 -390 61 -186 109 -340
106 -344 -4 -3 -128 -22 -277 -43 l-271 -36 -431 93 c-238 51 -441 95 -452 98
-47 12 -210 234 -289 393 -66 132 -106 255 -145 447 -35 172 -59 222 -127 262
-55 32 -150 42 -207 20z"/>
<path d="M2400 4866 c-188 -53 -320 -224 -320 -416 0 -111 47 -224 127 -303
169 -170 447 -167 612 8 227 240 116 626 -204 711 -61 17 -155 16 -215 0z"/>
</g>
</svg>
